<svg width="25" height="25" viewBox="0 0 216 216" fill="none" xmlns="http://www.w3.org/2000/svg">
<path d="M120 12V44C120 47.1826 118.736 50.2348 116.485 52.4853C114.235 54.7357 111.183 56 108 56C104.817 56 101.765 54.7357 99.5147 52.4853C97.2643 50.2348 96 47.1826 96 44V12C96 8.8174 97.2643 5.76516 99.5147 3.51472C101.765 1.26428 104.817 0 108 0C111.183 0 114.235 1.26428 116.485 3.51472C118.736 5.76516 120 8.8174 120 12ZM204 96H172C168.817 96 165.765 97.2643 163.515 99.5147C161.264 101.765 160 104.817 160 108C160 111.183 161.264 114.235 163.515 116.485C165.765 118.736 168.817 120 172 120H204C207.183 120 210.235 118.736 212.485 116.485C214.736 114.235 216 111.183 216 108C216 104.817 214.736 101.765 212.485 99.5147C210.235 97.2643 207.183 96 204 96ZM161.74 144.77C160.624 143.654 159.299 142.768 157.84 142.164C156.382 141.56 154.819 141.249 153.24 141.249C151.661 141.249 150.098 141.56 148.64 142.164C147.181 142.768 145.856 143.654 144.74 144.77C143.624 145.886 142.738 147.211 142.134 148.67C141.53 150.128 141.219 151.691 141.219 153.27C141.219 154.849 141.53 156.412 142.134 157.87C142.738 159.329 143.624 160.654 144.74 161.77L167.37 184.4C169.624 186.654 172.682 187.921 175.87 187.921C179.058 187.921 182.116 186.654 184.37 184.4C186.624 182.146 187.891 179.088 187.891 175.9C187.891 172.712 186.624 169.654 184.37 167.4L161.74 144.77ZM108 160C104.817 160 101.765 161.264 99.5147 163.515C97.2643 165.765 96 168.817 96 172V204C96 207.183 97.2643 210.235 99.5147 212.485C101.765 214.736 104.817 216 108 216C111.183 216 114.235 214.736 116.485 212.485C118.736 210.235 120 207.183 120 204V172C120 168.817 118.736 165.765 116.485 163.515C114.235 161.264 111.183 160 108 160ZM54.26 144.77L31.63 167.4C29.3757 169.654 28.1092 172.712 28.1092 175.9C28.1092 179.088 29.3757 182.146 31.63 184.4C33.8843 186.654 36.9419 187.921 40.13 187.921C43.3181 187.921 46.3757 186.654 48.63 184.4L71.26 161.77C73.5143 159.516 74.7808 156.458 74.7808 153.27C74.7808 150.082 73.5143 147.024 71.26 144.77C69.0057 142.516 65.9481 141.249 62.76 141.249C59.5719 141.249 56.5143 142.516 54.26 144.77ZM56 108C56 104.817 54.7357 101.765 52.4853 99.5147C50.2348 97.2643 47.1826 96 44 96H12C8.8174 96 5.76516 97.2643 3.51472 99.5147C1.26428 101.765 0 104.817 0 108C0 111.183 1.26428 114.235 3.51472 116.485C5.76516 118.736 8.8174 120 12 120H44C47.1826 120 50.2348 118.736 52.4853 116.485C54.7357 114.235 56 111.183 56 108ZM48.6 31.63C47.4838 30.5138 46.1586 29.6283 44.7002 29.0242C43.2417 28.4201 41.6786 28.1092 40.1 28.1092C38.5214 28.1092 36.9583 28.4201 35.4998 29.0242C34.0414 29.6283 32.7162 30.5138 31.6 31.63C30.4838 32.7462 29.5983 34.0714 28.9942 35.5298C28.3901 36.9883 28.0792 38.5514 28.0792 40.13C28.0792 41.7086 28.3901 43.2717 28.9942 44.7302C29.5983 46.1886 30.4838 47.5138 31.6 48.63L54.26 71.23C56.5143 73.4843 59.5719 74.7508 62.76 74.7508C65.9481 74.7508 69.0057 73.4843 71.26 71.23C73.5143 68.9757 74.7808 65.9181 74.7808 62.73C74.7808 59.5419 73.5143 56.4843 71.26 54.23L48.6 31.63Z" fill="gray"/>
</svg>
